<svg xmlns:sketch="http://www.bohemiancoding.com/sketch/ns" 
    xmlns="http://www.w3.org/2000/svg" 
    xmlns:xlink="http://www.w3.org/1999/xlink" height="140px" width="600px" version="1.1" viewBox="0 0 600 140">
     <defs>
        <style>
            .cls-1 {
                fill: #1d1d1b;
            }
        </style>
    </defs>
    <title>Sapph Logo</title>
    <g id="Productdetail" fill-rule="evenodd" sketch:type="MSPage" fill="none">
        <g id="Desktop---PDP-Sapph---header-04" transform="translate(-52 -13)" fill="#000" sketch:type="MSArtboardGroup">
            <g id="DEF-HEADER---17-09-15" sketch:type="MSLayerGroup">
                <g id="Group" sketch:type="MSShapeGroup" transform="translate(52 13.354)">
                    <path class="cls-1" d="M33,149.39a72.58,72.58,0,0,0,16.71,10.18,44.59,44.59,0,0,0,18,3.94q10.59,0,15.47-3.53a11.18,11.18,0,0,0,4.88-9.55,9.82,9.82,0,0,0-1.46-5.4A13.74,13.74,0,0,0,82.46,141a38.18,38.18,0,0,0-6.54-3.32c-2.57-1-5.5-2.18-8.83-3.43l-17.44-7.48a58.46,58.46,0,0,1-10.9-5.4,41.88,41.88,0,0,1-9.25-7.78,35,35,0,0,1-8.72-23.78,34.92,34.92,0,0,1,3.64-15.68A39.57,39.57,0,0,1,34.59,61.24a48.11,48.11,0,0,1,15.68-8.62A62,62,0,0,1,70.42,49.5a65.82,65.82,0,0,1,45.06,17.86L99.9,86.67a65.84,65.84,0,0,0-13.91-8,40.81,40.81,0,0,0-15.57-2.8q-8.94,0-13.81,3.21a10.22,10.22,0,0,0-4.88,9q0,6.23,6.23,9.34a150.81,150.81,0,0,0,16,6.65l16.4,7.06q13.5,5,21.29,13.71t7.78,23A37.56,37.56,0,0,1,115.89,164a39.06,39.06,0,0,1-10.17,13.29,50.61,50.61,0,0,1-16.41,9.14,67.68,67.68,0,0,1-22.43,3.43A78.53,78.53,0,0,1,39.78,185a75.36,75.36,0,0,1-24.4-14.64Z" transform="translate(-15.38 -49.5)" />
                    <path class="cls-1" d="M211.83,155.2H170.92l-8.3,32.19H131.47L173.62,52h36.55l42.16,135.4h-32.4Zm-6.23-23.88-3.11-12.46q-2.7-10.17-5.4-21.59t-5.4-22h-.83q-2.49,10.8-5.19,22.12t-5.4,21.49l-3.12,12.46Z" transform="translate(-15.38 -49.5)" />
                    <path class="cls-1" d="M269.56,52H319a93.86,93.86,0,0,1,20.66,2.18,46.39,46.39,0,0,1,16.82,7.27,35.5,35.5,0,0,1,11.32,13.5q4.15,8.41,4.15,20.66,0,11.85-4.25,20.56a39.82,39.82,0,0,1-11.53,14.33,49.06,49.06,0,0,1-16.82,8.31A74.51,74.51,0,0,1,319,141.5h-18.9v45.89H269.56Zm47.56,65.21q24.7,0,24.71-21.6,0-10.59-6.23-14.95t-18.48-4.36h-17V117.2Z" transform="translate(-15.38 -49.5)" />
                    <path class="cls-1" d="M394.16,52h49.43a93.92,93.92,0,0,1,20.66,2.18,46.39,46.39,0,0,1,16.82,7.27,35.5,35.5,0,0,1,11.32,13.5q4.16,8.41,4.15,20.66,0,11.85-4.25,20.56a39.93,39.93,0,0,1-11.53,14.33,49.06,49.06,0,0,1-16.82,8.31,74.51,74.51,0,0,1-20.35,2.7h-18.9v45.89H394.16Zm47.56,65.21q24.7,0,24.71-21.6,0-10.59-6.23-14.95t-18.48-4.36h-17V117.2Z" transform="translate(-15.38 -49.5)" />
                    <path class="cls-1" d="M516.68,52h30.53v52.13h37V52H614.7v135.4H584.18V130.91h-37v56.48H516.68Z" transform="translate(-15.38 -49.5)" />
                </g>
            </g>
        </g>
    </g>
</svg>